<mxfile host="app.diagrams.net" modified="2024-07-21T12:51:50.926Z" agent="Mozilla/5.0 (Macintosh; Intel Mac OS X 10_15_7) AppleWebKit/537.36 (KHTML, like Gecko) Chrome/120.0.0.0 Whale/3.24.223.18 Safari/537.36" etag="6WU0RiqkZTbnU9e6toYH" version="24.7.1" type="github">
  <diagram name="페이지-1" id="GK7q8O2aWjFqR6UCMzfh">
    <mxGraphModel dx="582" dy="1108" grid="1" gridSize="10" guides="1" tooltips="1" connect="1" arrows="1" fold="1" page="1" pageScale="1" pageWidth="1169" pageHeight="827" math="0" shadow="0">
      <root>
        <mxCell id="0" />
        <mxCell id="1" parent="0" />
        <mxCell id="IjC-pqzfyY8QE6GOgvN0-1" value="" style="rounded=0;whiteSpace=wrap;html=1;fillColor=#dae8fc;strokeColor=#6c8ebf;" parent="1" vertex="1">
          <mxGeometry x="80" y="190" width="160" height="100" as="geometry" />
        </mxCell>
        <mxCell id="IjC-pqzfyY8QE6GOgvN0-2" value="Application" style="text;html=1;align=center;verticalAlign=middle;whiteSpace=wrap;rounded=0;" parent="1" vertex="1">
          <mxGeometry x="110" y="190" width="100" height="30" as="geometry" />
        </mxCell>
        <mxCell id="IjC-pqzfyY8QE6GOgvN0-4" value="Kafka Consumer" style="rounded=1;whiteSpace=wrap;html=1;" parent="1" vertex="1">
          <mxGeometry x="100" y="225" width="120" height="50" as="geometry" />
        </mxCell>
        <mxCell id="IjC-pqzfyY8QE6GOgvN0-5" value="" style="rounded=0;whiteSpace=wrap;html=1;fillColor=#d5e8d4;strokeColor=#82b366;" parent="1" vertex="1">
          <mxGeometry x="320" y="160" width="200" height="290" as="geometry" />
        </mxCell>
        <mxCell id="IjC-pqzfyY8QE6GOgvN0-6" value="Kafka Broker" style="text;html=1;align=center;verticalAlign=middle;whiteSpace=wrap;rounded=0;" parent="1" vertex="1">
          <mxGeometry x="380" y="160" width="100" height="30" as="geometry" />
        </mxCell>
        <mxCell id="IjC-pqzfyY8QE6GOgvN0-12" value="topic : inbound-topic-1, partition : 0" style="text;html=1;align=center;verticalAlign=middle;whiteSpace=wrap;rounded=0;" parent="1" vertex="1">
          <mxGeometry x="330" y="200" width="190" height="30" as="geometry" />
        </mxCell>
        <mxCell id="IjC-pqzfyY8QE6GOgvN0-13" value="" style="group" parent="1" vertex="1" connectable="0">
          <mxGeometry x="340" y="230" width="160" height="40" as="geometry" />
        </mxCell>
        <mxCell id="IjC-pqzfyY8QE6GOgvN0-7" value="m1" style="rounded=0;whiteSpace=wrap;html=1;" parent="IjC-pqzfyY8QE6GOgvN0-13" vertex="1">
          <mxGeometry width="40" height="40" as="geometry" />
        </mxCell>
        <mxCell id="IjC-pqzfyY8QE6GOgvN0-8" value="m3" style="rounded=0;whiteSpace=wrap;html=1;" parent="IjC-pqzfyY8QE6GOgvN0-13" vertex="1">
          <mxGeometry x="40" width="40" height="40" as="geometry" />
        </mxCell>
        <mxCell id="IjC-pqzfyY8QE6GOgvN0-9" value="m5" style="rounded=0;whiteSpace=wrap;html=1;" parent="IjC-pqzfyY8QE6GOgvN0-13" vertex="1">
          <mxGeometry x="80" width="40" height="40" as="geometry" />
        </mxCell>
        <mxCell id="IjC-pqzfyY8QE6GOgvN0-10" value="m7" style="rounded=0;whiteSpace=wrap;html=1;" parent="IjC-pqzfyY8QE6GOgvN0-13" vertex="1">
          <mxGeometry x="120" width="40" height="40" as="geometry" />
        </mxCell>
        <mxCell id="IjC-pqzfyY8QE6GOgvN0-17" style="edgeStyle=orthogonalEdgeStyle;rounded=0;orthogonalLoop=1;jettySize=auto;html=1;entryX=0;entryY=0.5;entryDx=0;entryDy=0;" parent="1" source="IjC-pqzfyY8QE6GOgvN0-4" target="IjC-pqzfyY8QE6GOgvN0-7" edge="1">
          <mxGeometry relative="1" as="geometry" />
        </mxCell>
        <mxCell id="OXEakWpg6nT8q7uh5shS-1" value="topic : inbound-topic-1, partition : 1" style="text;html=1;align=center;verticalAlign=middle;whiteSpace=wrap;rounded=0;" vertex="1" parent="1">
          <mxGeometry x="330" y="280" width="190" height="30" as="geometry" />
        </mxCell>
        <mxCell id="OXEakWpg6nT8q7uh5shS-2" value="" style="group" vertex="1" connectable="0" parent="1">
          <mxGeometry x="340" y="310" width="160" height="40" as="geometry" />
        </mxCell>
        <mxCell id="OXEakWpg6nT8q7uh5shS-3" value="m2" style="rounded=0;whiteSpace=wrap;html=1;" vertex="1" parent="OXEakWpg6nT8q7uh5shS-2">
          <mxGeometry width="40" height="40" as="geometry" />
        </mxCell>
        <mxCell id="OXEakWpg6nT8q7uh5shS-4" value="m4" style="rounded=0;whiteSpace=wrap;html=1;" vertex="1" parent="OXEakWpg6nT8q7uh5shS-2">
          <mxGeometry x="40" width="40" height="40" as="geometry" />
        </mxCell>
        <mxCell id="OXEakWpg6nT8q7uh5shS-5" value="m6" style="rounded=0;whiteSpace=wrap;html=1;" vertex="1" parent="OXEakWpg6nT8q7uh5shS-2">
          <mxGeometry x="80" width="40" height="40" as="geometry" />
        </mxCell>
        <mxCell id="OXEakWpg6nT8q7uh5shS-6" value="m8" style="rounded=0;whiteSpace=wrap;html=1;" vertex="1" parent="OXEakWpg6nT8q7uh5shS-2">
          <mxGeometry x="120" width="40" height="40" as="geometry" />
        </mxCell>
        <mxCell id="OXEakWpg6nT8q7uh5shS-7" value="topic : inbound-topic-2, partition : 0" style="text;html=1;align=center;verticalAlign=middle;whiteSpace=wrap;rounded=0;" vertex="1" parent="1">
          <mxGeometry x="330" y="360" width="190" height="30" as="geometry" />
        </mxCell>
        <mxCell id="OXEakWpg6nT8q7uh5shS-8" value="" style="group" vertex="1" connectable="0" parent="1">
          <mxGeometry x="340" y="390" width="160" height="40" as="geometry" />
        </mxCell>
        <mxCell id="OXEakWpg6nT8q7uh5shS-9" value="mm1" style="rounded=0;whiteSpace=wrap;html=1;" vertex="1" parent="OXEakWpg6nT8q7uh5shS-8">
          <mxGeometry width="40" height="40" as="geometry" />
        </mxCell>
        <mxCell id="OXEakWpg6nT8q7uh5shS-10" value="mm2" style="rounded=0;whiteSpace=wrap;html=1;" vertex="1" parent="OXEakWpg6nT8q7uh5shS-8">
          <mxGeometry x="40" width="40" height="40" as="geometry" />
        </mxCell>
        <mxCell id="OXEakWpg6nT8q7uh5shS-11" value="mm3" style="rounded=0;whiteSpace=wrap;html=1;" vertex="1" parent="OXEakWpg6nT8q7uh5shS-8">
          <mxGeometry x="80" width="40" height="40" as="geometry" />
        </mxCell>
        <mxCell id="OXEakWpg6nT8q7uh5shS-12" value="mm4" style="rounded=0;whiteSpace=wrap;html=1;" vertex="1" parent="OXEakWpg6nT8q7uh5shS-8">
          <mxGeometry x="120" width="40" height="40" as="geometry" />
        </mxCell>
        <mxCell id="OXEakWpg6nT8q7uh5shS-13" style="rounded=0;orthogonalLoop=1;jettySize=auto;html=1;entryX=0;entryY=0.5;entryDx=0;entryDy=0;exitX=1;exitY=0.5;exitDx=0;exitDy=0;" edge="1" parent="1" source="IjC-pqzfyY8QE6GOgvN0-4" target="OXEakWpg6nT8q7uh5shS-3">
          <mxGeometry relative="1" as="geometry" />
        </mxCell>
        <mxCell id="OXEakWpg6nT8q7uh5shS-14" style="rounded=0;orthogonalLoop=1;jettySize=auto;html=1;entryX=0;entryY=0.5;entryDx=0;entryDy=0;" edge="1" parent="1" target="OXEakWpg6nT8q7uh5shS-9">
          <mxGeometry relative="1" as="geometry">
            <mxPoint x="220" y="250" as="sourcePoint" />
          </mxGeometry>
        </mxCell>
        <mxCell id="OXEakWpg6nT8q7uh5shS-15" value="consume" style="text;html=1;align=center;verticalAlign=middle;whiteSpace=wrap;rounded=0;" vertex="1" parent="1">
          <mxGeometry x="250" y="220" width="60" height="30" as="geometry" />
        </mxCell>
      </root>
    </mxGraphModel>
  </diagram>
</mxfile>
